# xmcd CD database file
#
# Track frame offsets:
#	150
#	40892
#	102150
#	121913
#	131499
#	150812
#	205677
#
# Disc length: 3024 seconds
#
# Revision: 0
# Processed by: cddbd v1.5.2PL0 Copyright (c) Steve Scherf et al.
# Submitted via: CDex 1.70beta3
#
DISCID=4c0bce07
DTITLE=The WHO Trio - The WHO Zoo - Acoustic
DYEAR=2014
DGENRE=Jazz
TTITLE0=Chilabreela
TTITLE1=Raccitus
TTITLE2=Demmpa
TTITLE3=Whylateakki
TTITLE4=Rembellarun
TTITLE5=Sloeperr
TTITLE6=Breneen
EXTD=YEAR: 2014
EXTT0=
EXTT1=
EXTT2=
EXTT3=
EXTT4=
EXTT5=
EXTT6=
PLAYORDER=
